<svg xmlns="http://www.w3.org/2000/svg" version="1.1" xmlns:xlink="http://www.w3.org/1999/xlink" xmlns:svgjs="http://svgjs.dev/svgjs" width="1000" height="1000" viewBox="0 0 1000 1000"><rect width="1000" height="1000" fill="#000000"></rect><g transform="matrix(0.7,0,0,0.7,150.07466666666664,276.981361251046)"><svg viewBox="0 0 375 239" data-background-color="#236ab9" preserveAspectRatio="xMidYMid meet" height="637" width="1000" xmlns="http://www.w3.org/2000/svg" xmlns:xlink="http://www.w3.org/1999/xlink"><defs></defs><g id="tight-bounds" transform="matrix(1,0,0,1,-0.03976000000000113,0.036789999999996326)"><svg viewBox="0 0 375.07953 238.92642" height="238.92642" width="375.07953"><g><svg></svg></g><g><svg viewBox="0 0 375.07953 238.92642" height="238.92642" width="375.07953"><g transform="matrix(1,0,0,1,-10.22024,-8.27358000000001)"><path d="M10.22 238.926v-230.652h375.08v230.652h-81.298l0-3.156h78.141v-224.34h-368.766v224.34h78.141l0 3.156z" fill="#f8fafc" data-fill-palette-color="tertiary"></path><path d="M104.635 243.667v0.402h-3.648v-0.402h0.46c0.211 0 0.369-0.036 0.474-0.109 0.105-0.071 0.168-0.145 0.187-0.221 0.019-0.077 0.029-0.187 0.028-0.33v0-7.928c0-0.239-0.048-0.41-0.143-0.511-0.096-0.1-0.278-0.149-0.546-0.149v0h-0.46v-0.403h7.669l0.144 2.04-0.402 0.057c-0.019-0.354-0.168-0.692-0.445-1.014-0.278-0.32-0.665-0.48-1.164-0.479v0h-2.7c-0.211 0-0.369 0.034-0.473 0.1-0.105 0.067-0.168 0.139-0.187 0.216-0.019 0.077-0.029 0.182-0.029 0.316v0 3.188h2.786c0.144 0 0.254-0.01 0.331-0.029v0c0.201-0.048 0.302-0.23 0.301-0.546v0-0.689h0.431v3.073h-0.431v-0.632c0-0.249-0.053-0.407-0.158-0.474-0.105-0.067-0.263-0.101-0.474-0.1v0h-2.786v3.964c0 0.144 0.01 0.254 0.029 0.33 0.019 0.077 0.081 0.15 0.187 0.221 0.105 0.073 0.263 0.109 0.473 0.109v0zM113.223 243.667v0.402h-3.648v-0.402h0.489c0.287 0 0.474-0.057 0.56-0.172 0.086-0.115 0.129-0.278 0.129-0.488v0-7.928c0-0.211-0.043-0.373-0.129-0.488-0.086-0.115-0.273-0.172-0.56-0.172v0h-0.489v-0.403h3.648v0.403h-0.546c-0.287 0-0.474 0.057-0.56 0.172-0.086 0.115-0.129 0.278-0.129 0.488v0 7.928c0 0.211 0.043 0.373 0.129 0.488 0.086 0.115 0.273 0.172 0.56 0.172v0zM122.73 244.299v0l-6.347-8.502v7.21c0 0.421 0.297 0.632 0.89 0.631v0h0.546v0.431h-3.447v-0.431h0.46c0.594 0 0.89-0.211 0.89-0.631v0-7.928c0-0.421-0.297-0.632-0.89-0.632v0h-0.46v-0.431h2.269l5.917 7.957v-6.894c0-0.421-0.287-0.632-0.862-0.632v0h-0.488v-0.431h3.447v0.431h-0.546c-0.594 0-0.89 0.211-0.891 0.632v0 8.933c-0.105 0-0.218 0.046-0.338 0.138-0.119 0.09-0.169 0.14-0.15 0.149zM129.48 243.667v0.402h-3.648v-0.402h0.489c0.287 0 0.474-0.057 0.56-0.172 0.086-0.115 0.129-0.278 0.129-0.488v0-7.928c0-0.211-0.043-0.373-0.129-0.488-0.086-0.115-0.273-0.172-0.56-0.172v0h-0.489v-0.403h3.648v0.403h-0.546c-0.287 0-0.474 0.057-0.56 0.172-0.086 0.115-0.129 0.278-0.129 0.488v0 7.928c0 0.211 0.043 0.373 0.129 0.488 0.086 0.115 0.273 0.172 0.56 0.172v0zM130.485 243.38v0l0.201-1.867 0.489 0.029c0 0.527 0.314 0.95 0.942 1.269 0.626 0.322 1.339 0.483 2.139 0.483 0.798 0 1.399-0.123 1.801-0.368 0.402-0.243 0.603-0.551 0.604-0.925v0c0-0.632-0.335-1.197-1.006-1.694v0c-0.278-0.201-0.57-0.378-0.876-0.532v0c-0.699-0.364-1.136-0.596-1.312-0.698-0.178-0.1-0.377-0.202-0.598-0.307-0.22-0.105-0.423-0.218-0.609-0.339-0.188-0.119-0.387-0.264-0.597-0.436v0c-0.479-0.383-0.718-0.812-0.718-1.287 0-0.473 0.083-0.887 0.25-1.241 0.169-0.354 0.38-0.632 0.634-0.833 0.253-0.201 0.551-0.369 0.897-0.503v0c0.584-0.211 1.238-0.316 1.961-0.316 0.722 0 1.418 0.182 2.088 0.546v0l-0.172 1.666h-0.488c0-0.9-0.756-1.35-2.269-1.35v0c-0.699 0-1.224 0.11-1.574 0.33-0.348 0.22-0.523 0.522-0.523 0.905v0c0 0.613 0.996 1.35 2.987 2.212v0c1.312 0.565 2.149 1.192 2.513 1.881v0c0.182 0.345 0.273 0.723 0.273 1.135v0c0 0.996-0.399 1.766-1.198 2.312-0.8 0.546-1.765 0.819-2.895 0.818-1.13 0-2.111-0.297-2.944-0.89zM149.011 243.667v0.402h-3.648v-0.402h0.46c0.211 0 0.369-0.036 0.474-0.109 0.105-0.071 0.168-0.145 0.187-0.221 0.019-0.077 0.029-0.187 0.028-0.33v0-3.849h-5.572v3.849c0 0.211 0.043 0.373 0.129 0.488 0.086 0.115 0.273 0.172 0.56 0.172v0h0.546v0.402h-3.648v-0.402h0.489c0.287 0 0.474-0.057 0.56-0.172 0.086-0.115 0.129-0.278 0.129-0.488v0-7.928c0-0.211-0.043-0.373-0.129-0.488-0.086-0.115-0.273-0.172-0.56-0.172v0h-0.489v-0.403h3.648v0.403h-0.546c-0.287 0-0.474 0.057-0.56 0.172-0.086 0.115-0.129 0.278-0.129 0.488v0 3.447h5.572v-3.447c0-0.144-0.01-0.254-0.028-0.33-0.019-0.077-0.081-0.151-0.187-0.224-0.105-0.071-0.263-0.106-0.474-0.106v0h-0.46v-0.403h3.648v0.403h-0.546c-0.211 0-0.369 0.035-0.474 0.106-0.105 0.073-0.168 0.147-0.186 0.224-0.019 0.077-0.029 0.187-0.029 0.33v0 7.928c0 0.144 0.01 0.254 0.029 0.33 0.019 0.077 0.081 0.15 0.186 0.221 0.105 0.073 0.263 0.109 0.474 0.109v0zM159.121 243.667v0.402h-3.734v-0.402h0.575c0.287 0 0.469-0.056 0.546-0.166 0.077-0.109 0.115-0.264 0.115-0.466v0-7.755c0-0.144-0.01-0.257-0.029-0.339-0.019-0.08-0.079-0.154-0.181-0.221-0.1-0.067-0.25-0.101-0.451-0.1v0h-0.862c-0.507 0-0.898 0.155-1.172 0.465-0.272 0.312-0.417 0.645-0.436 0.999v0l-0.402-0.086 0.143-1.982h8.071l0.144 1.982-0.402 0.086c-0.019-0.345-0.168-0.675-0.445-0.99-0.278-0.316-0.665-0.474-1.164-0.474v0h-0.861c-0.211 0-0.369 0.036-0.474 0.109-0.105 0.071-0.168 0.145-0.187 0.221-0.019 0.077-0.029 0.187-0.029 0.33v0 7.755c0 0.134 0.01 0.239 0.029 0.316 0.019 0.077 0.081 0.148 0.187 0.216 0.105 0.067 0.263 0.101 0.474 0.1v0zM172.707 243.667v0.402h-3.648v-0.402h0.46c0.211 0 0.369-0.036 0.474-0.109 0.105-0.071 0.168-0.145 0.186-0.221 0.019-0.077 0.029-0.187 0.029-0.33v0-3.849h-5.572v3.849c0 0.211 0.043 0.373 0.129 0.488 0.086 0.115 0.273 0.172 0.56 0.172v0h0.546v0.402h-3.648v-0.402h0.489c0.287 0 0.474-0.057 0.56-0.172 0.086-0.115 0.129-0.278 0.129-0.488v0-7.928c0-0.211-0.043-0.373-0.129-0.488-0.086-0.115-0.273-0.172-0.56-0.172v0h-0.489v-0.403h3.648v0.403h-0.546c-0.287 0-0.474 0.057-0.56 0.172-0.086 0.115-0.129 0.278-0.129 0.488v0 3.447h5.572v-3.447c0-0.144-0.01-0.254-0.029-0.33-0.019-0.077-0.081-0.151-0.186-0.224-0.105-0.071-0.263-0.106-0.474-0.106v0h-0.46v-0.403h3.648v0.403h-0.546c-0.211 0-0.369 0.035-0.474 0.106-0.105 0.073-0.168 0.147-0.186 0.224-0.019 0.077-0.029 0.187-0.029 0.33v0 7.928c0 0.144 0.01 0.254 0.029 0.33 0.019 0.077 0.081 0.15 0.186 0.221 0.105 0.073 0.263 0.109 0.474 0.109v0zM182.042 242.087l-0.489 1.982h-7.697v-0.402h0.488c0.278 0 0.461-0.053 0.552-0.158 0.092-0.105 0.138-0.273 0.138-0.502v0-7.928c0-0.191-0.059-0.349-0.179-0.474-0.121-0.124-0.291-0.187-0.511-0.186v0h-0.488v-0.403h7.583l0.114 1.982-0.402 0.086c0-0.345-0.139-0.675-0.416-0.99-0.278-0.316-0.665-0.474-1.163-0.474v0h-2.614c-0.287 0-0.474 0.055-0.56 0.163-0.086 0.111-0.129 0.267-0.129 0.469v0 3.274h2.872c0.144 0 0.254-0.008 0.33-0.023 0.077-0.013 0.146-0.063 0.207-0.149 0.063-0.086 0.095-0.211 0.095-0.374v0-0.66h0.431v2.987h-0.431v-0.604c0-0.239-0.053-0.394-0.158-0.465-0.105-0.073-0.263-0.109-0.474-0.109v0h-2.872v3.705c0 0.201 0.043 0.356 0.129 0.466 0.086 0.111 0.273 0.167 0.56 0.166v0h2.729c0.507 0 0.955-0.163 1.344-0.488 0.387-0.326 0.59-0.641 0.609-0.948v0zM191.434 234.821l-2.384 0.143v7.813c0.555 0.326 1.312 0.488 2.269 0.488v0c1.139 0 2.145-0.311 3.016-0.933v0c0.44-0.316 0.79-0.756 1.048-1.322 0.259-0.565 0.388-1.203 0.388-1.915 0-0.714-0.142-1.349-0.425-1.905-0.281-0.555-0.647-1-1.097-1.335v0c-0.91-0.689-1.848-1.034-2.815-1.034zM186.637 234.016h2.212l3.561-0.143c1.331 0 2.381 0.431 3.151 1.292 0.772 0.862 1.158 2.012 1.158 3.453 0 1.442-0.553 2.71-1.66 3.805-1.105 1.097-2.399 1.646-3.884 1.646v0h-4.538v-0.431h0.489c0.287 0 0.474-0.053 0.56-0.158 0.086-0.105 0.129-0.263 0.129-0.473v0-7.928c0-0.22-0.046-0.381-0.138-0.482-0.09-0.1-0.274-0.149-0.551-0.15v0h-0.489zM207.016 243.667v0.402h-3.677v-0.402h0.46c0.421 0 0.632-0.134 0.632-0.402v0c0-0.038-0.048-0.201-0.144-0.488v0l-0.976-2.557h-3.619l-0.948 2.442c0 0.019-0.034 0.136-0.101 0.35-0.067 0.216-0.101 0.365-0.1 0.445 0 0.082 0.053 0.138 0.158 0.167 0.105 0.029 0.33 0.043 0.675 0.043v0h0.229v0.402h-2.814v-0.402h0.201c0.316 0 0.546-0.056 0.689-0.166 0.144-0.109 0.268-0.293 0.373-0.552v0l3.16-8.243c0.048-0.01 0.134-0.079 0.258-0.21 0.124-0.128 0.239-0.262 0.345-0.402 0.105-0.138 0.158-0.216 0.158-0.235 0-0.019-0.005-0.034-0.014-0.044v0l0.201-0.057 3.533 9.249c0.105 0.22 0.213 0.385 0.324 0.494 0.109 0.111 0.269 0.167 0.48 0.166v0zM199.921 239.617h3.131l-1.551-4.107zM216.092 244.299v0l-6.348-8.502v7.21c0 0.421 0.297 0.632 0.891 0.631v0h0.545v0.431h-3.446v-0.431h0.459c0.594 0 0.89-0.211 0.891-0.631v0-7.928c0-0.421-0.297-0.632-0.891-0.632v0h-0.459v-0.431h2.269l5.917 7.957v-6.894c0-0.421-0.287-0.632-0.862-0.632v0h-0.488v-0.431h3.446v0.431h-0.545c-0.594 0-0.89 0.211-0.891 0.632v0 8.933c-0.105 0-0.217 0.046-0.336 0.138-0.121 0.09-0.171 0.14-0.152 0.149zM226.604 242.432v0-1.781c0-0.134-0.01-0.239-0.028-0.316-0.019-0.077-0.081-0.148-0.187-0.215-0.105-0.067-0.263-0.101-0.474-0.101v0h-0.517v-0.402h3.361v0.402h-0.23c-0.287 0-0.474 0.055-0.56 0.164-0.086 0.111-0.129 0.267-0.13 0.468v0 1.465c-1.379 1.494-2.882 2.24-4.509 2.24v0c-1.091 0-2.063-0.483-2.915-1.45-0.852-0.967-1.278-2.054-1.278-3.26v0c0-1.561 0.577-2.933 1.732-4.116 1.153-1.181 2.5-1.772 4.041-1.772v0c0.574 0 1.35 0.163 2.326 0.488v0l0.086 1.982h-0.517c0-0.862-0.843-1.292-2.527-1.292v0c-1.158 0-2.142 0.318-2.95 0.953-0.81 0.638-1.215 1.545-1.215 2.723v0c0 0.661 0.103 1.264 0.31 1.81 0.205 0.546 0.465 0.991 0.782 1.335 0.316 0.345 0.67 0.637 1.062 0.876v0c0.728 0.421 1.431 0.632 2.111 0.632 0.68 0 1.422-0.278 2.226-0.833zM236.284 239.56l-0.115-0.575 0.689 0.029c0.718 0 1.379-0.115 1.982-0.345v0c0.354-0.134 0.64-0.345 0.856-0.631 0.214-0.287 0.322-0.641 0.322-1.063v0c0-1.513-0.91-2.269-2.729-2.269v0l-1.494 0.057v8.272c0 0.134 0.01 0.239 0.029 0.316 0.019 0.077 0.081 0.148 0.187 0.216 0.105 0.067 0.263 0.101 0.474 0.1v0h0.546v0.402h-3.648v-0.402h0.459c0.211 0 0.369-0.034 0.474-0.1 0.105-0.067 0.168-0.139 0.187-0.216 0.019-0.077 0.029-0.182 0.029-0.316v0-7.956c0-0.22-0.045-0.381-0.135-0.482-0.092-0.1-0.277-0.149-0.555-0.15v0h-0.459v-0.431h2.211l2.729-0.143c0.862 0 1.556 0.187 2.082 0.56 0.527 0.373 0.79 0.897 0.79 1.571 0 0.676-0.155 1.265-0.465 1.766-0.312 0.504-0.698 0.88-1.158 1.129v0c-0.871 0.46-1.652 0.689-2.34 0.69v0c-0.402 0-0.718-0.01-0.948-0.029zM242.057 234.016h2.212l2.728-0.143c0.843 0 1.532 0.177 2.068 0.531 0.536 0.354 0.804 0.838 0.804 1.451v0c0 0.852-0.23 1.546-0.689 2.082-0.46 0.536-1.024 0.943-1.695 1.221v0l2.327 3.504c0.096 0.153 0.281 0.359 0.554 0.617 0.272 0.259 0.518 0.388 0.738 0.388v0h0.259v0.402h-2.125c0.029 0-0.062-0.144-0.273-0.431-0.211-0.287-0.33-0.46-0.359-0.517v0l-2.384-3.676c-0.096 0.019-0.287 0.029-0.575 0.029-0.287 0-0.517-0.01-0.689-0.029v0l-0.115-0.574c0.134 0.019 0.421 0.029 0.862 0.028 0.44 0 0.881-0.057 1.321-0.172 0.44-0.115 0.828-0.333 1.163-0.655 0.335-0.32 0.503-0.733 0.503-1.241v0c0-1.417-0.91-2.125-2.729-2.125v0l-1.493 0.057v8.244c0 0.144 0.01 0.254 0.028 0.33 0.019 0.077 0.081 0.15 0.187 0.221 0.105 0.073 0.263 0.109 0.474 0.109v0h0.546v0.402h-3.648v-0.402h0.459c0.211 0 0.369-0.036 0.474-0.109 0.105-0.071 0.168-0.145 0.187-0.221 0.019-0.077 0.029-0.187 0.029-0.33v0-7.928c0-0.22-0.045-0.381-0.135-0.482-0.092-0.1-0.277-0.149-0.555-0.15v0h-0.459zM255.959 244.356v0c-1.254 0-2.3-0.483-3.137-1.45-0.839-0.967-1.258-2.082-1.258-3.346v0c0-0.785 0.172-1.541 0.517-2.269 0.345-0.728 0.788-1.345 1.33-1.853 0.54-0.507 1.138-0.914 1.795-1.22 0.655-0.306 1.289-0.46 1.901-0.46v0c1.245 0 2.288 0.483 3.131 1.45 0.843 0.967 1.264 2.082 1.264 3.347v0c0 0.938-0.254 1.855-0.761 2.748-0.507 0.896-1.194 1.629-2.06 2.198-0.867 0.571-1.775 0.856-2.722 0.855zM256.849 243.265v0c1.044 0 1.922-0.383 2.637-1.149 0.712-0.766 1.068-1.714 1.068-2.843 0-1.13-0.414-2.145-1.241-3.045-0.829-0.9-1.832-1.35-3.01-1.35v0c-1.005 0-1.888 0.361-2.648 1.083-0.762 0.724-1.143 1.588-1.143 2.594v0c0 1.302 0.4 2.413 1.2 3.331 0.798 0.919 1.844 1.379 3.137 1.379zM262.507 247.2v0l-0.316-0.546c0.402-0.268 0.761-0.598 1.077-0.991 0.316-0.393 0.474-0.752 0.474-1.077v0-9.507c0-0.144-0.01-0.254-0.028-0.33-0.019-0.077-0.081-0.146-0.187-0.21-0.105-0.061-0.263-0.092-0.474-0.092v0h-0.46v-0.431h3.648v0.431h-0.546c-0.211 0-0.369 0.031-0.474 0.092-0.105 0.063-0.168 0.133-0.186 0.21-0.019 0.077-0.029 0.187-0.029 0.33v0 9.076c0 0.986-0.268 1.695-0.804 2.126v0c-0.182 0.144-0.345 0.252-0.488 0.324-0.144 0.071-0.345 0.167-0.604 0.288-0.259 0.119-0.46 0.221-0.603 0.307zM275.547 242.087l-0.488 1.982h-7.698v-0.402h0.489c0.278 0 0.462-0.053 0.554-0.158 0.09-0.105 0.135-0.273 0.135-0.502v0-7.928c0-0.191-0.059-0.349-0.178-0.474-0.121-0.124-0.291-0.187-0.511-0.186v0h-0.489v-0.403h7.583l0.115 1.982-0.402 0.086c0-0.345-0.139-0.675-0.417-0.99-0.278-0.316-0.665-0.474-1.163-0.474v0h-2.614c-0.287 0-0.474 0.055-0.56 0.163-0.086 0.111-0.129 0.267-0.129 0.469v0 3.274h2.872c0.144 0 0.254-0.008 0.33-0.023 0.077-0.013 0.146-0.063 0.21-0.149 0.061-0.086 0.092-0.211 0.092-0.374v0-0.66h0.431v2.987h-0.431v-0.604c0-0.239-0.053-0.394-0.158-0.465-0.105-0.073-0.263-0.109-0.474-0.109v0h-2.872v3.705c0 0.201 0.043 0.356 0.129 0.466 0.086 0.111 0.273 0.167 0.56 0.166v0h2.729c0.507 0 0.955-0.163 1.344-0.488 0.387-0.326 0.59-0.641 0.609-0.948v0zM285.198 241.254v0l0.344 0.517c-0.775 0.881-1.551 1.532-2.326 1.954-0.775 0.421-1.608 0.632-2.499 0.632v0c-1.101 0-2.079-0.483-2.935-1.451-0.858-0.967-1.287-2.063-1.287-3.289v0c0-1.541 0.582-2.904 1.746-4.087 1.162-1.181 2.514-1.772 4.056-1.772v0c0.613 0 1.379 0.153 2.298 0.46v0l-0.173 2.01h-0.488c0-0.354-0.12-0.632-0.359-0.833-0.239-0.201-0.509-0.328-0.81-0.382-0.303-0.052-0.679-0.078-1.129-0.077v0c-1.111 0-2.078 0.326-2.901 0.976-0.823 0.651-1.235 1.541-1.235 2.671v0c0 0.823 0.153 1.556 0.46 2.198 0.306 0.641 0.689 1.135 1.149 1.479v0c0.91 0.67 1.781 1.005 2.613 1.005v0c0.517 0 1.091-0.168 1.724-0.503 0.632-0.335 1.216-0.838 1.752-1.508zM292.206 243.667v0.402h-3.734v-0.402h0.575c0.287 0 0.469-0.056 0.545-0.166 0.077-0.109 0.115-0.264 0.115-0.466v0-7.755c0-0.144-0.01-0.257-0.029-0.339-0.019-0.08-0.079-0.154-0.178-0.221-0.101-0.067-0.253-0.101-0.453-0.1v0h-0.862c-0.507 0-0.897 0.155-1.169 0.465-0.274 0.312-0.42 0.645-0.44 0.999v0l-0.402-0.086 0.144-1.982h8.071l0.144 1.982-0.403 0.086c-0.019-0.345-0.168-0.675-0.445-0.99-0.278-0.316-0.665-0.474-1.163-0.474v0h-0.862c-0.211 0-0.369 0.036-0.474 0.109-0.105 0.071-0.168 0.145-0.186 0.221-0.019 0.077-0.029 0.187-0.029 0.33v0 7.755c0 0.134 0.01 0.239 0.029 0.316 0.019 0.077 0.081 0.148 0.186 0.216 0.105 0.067 0.263 0.101 0.474 0.1v0z" fill="#ffffff" data-fill-palette-color="secondary"></path></g><g transform="matrix(1,0,0,1,29.33176499999999,68.18839852613837)"><svg viewBox="0 0 316.416 102.54962294772328" height="102.54962294772328" width="316.416"><g><svg viewBox="0 0 316.416 102.54962294772328" height="102.54962294772328" width="316.416"><g><svg viewBox="0 0 316.416 102.54962294772328" height="102.54962294772328" width="316.416"><g><svg viewBox="0 0 316.416 102.54962294772328" height="102.54962294772328" width="316.416"><g><rect width="316.416" height="76.00427593802428" fill="none" stroke-width="6.31267224" stroke="#f8fafc" data-fill-palette-color="none" data-stroke-palette-color="tertiary"></rect><rect width="316.416" height="26.545347009699004" y="76.00427593802428" fill="#f8fafc" data-fill-palette-color="tertiary"></rect></g><g><svg viewBox="0 0 316.416 76.00427593802428" height="76.00427593802428" width="316.416"><g transform="matrix(1,0,0,1,16.52532,16.52532)"><svg width="283.36536" viewBox="3.25 -36.5 247.37 37.5" height="42.95363593802428" data-palette-color="#f8fafc"><path d="M11.4-32.1L11.4-32.1 11.4-4.39Q11.4-2.42 12.21-1.51 13.01-0.61 15.26-0.2L15.26-0.2 15.04 0.39Q12.26 0 10.64 0L10.64 0Q9.2 0 7.3 0.39L7.3 0.39 7.15 0.15Q7.64-0.56 7.64-2.44L7.64-2.44 7.64-28.1Q7.64-31.57 6.85-32.65 6.05-33.74 3.34-33.74L3.34-33.74 3.25-34.45Q10.03-35.45 14.16-35.45L14.16-35.45Q16.99-35.45 19.18-35.03 21.36-34.62 23.12-33.65 24.88-32.69 25.82-30.98 26.76-29.27 26.76-26.86L26.76-26.86Q26.76-24.19 25.04-22.01 23.32-19.82 20.76-18.69 18.21-17.55 15.55-17.55L15.55-17.55Q14.5-17.55 13.99-17.65L13.99-17.65 13.99-18.51Q15.84-18.51 17.42-18.99 18.99-19.48 20.23-20.46 21.46-21.44 22.16-23.03 22.85-24.63 22.85-26.71L22.85-26.71Q22.85-30.05 21.17-32.01 19.48-33.96 15.89-33.96L15.89-33.96Q13.26-33.96 11.25-33.64L11.25-33.64Q11.4-32.91 11.4-32.1ZM62.84-32.59L62.84-32.59 62.84-4.39Q62.84-2.42 63.64-1.51 64.45-0.61 66.7-0.2L66.7-0.2 66.5 0.39Q63.79 0.02 62.38 0 60.96-0.02 58.76 0.39L58.76 0.39 58.59 0.15Q59.1-0.56 59.1-2.44L59.1-2.44 59.1-18.51Q48.34-18.75 40.4-18.51L40.4-18.51 40.4-2.49Q40.4-0.76 41.16 0L41.16 0 41.01 0.24Q37.81-0.24 34.81 0.34L34.81 0.34 34.64 0.1Q35.89-1 36.26-1.88 36.64-2.76 36.64-4.44L36.64-4.44 36.64-28.1Q36.64-31.54 35.83-32.74 35.01-33.94 32.35-33.74L32.35-33.74 32.25-34.2Q36.28-35.4 39.89-35.4L39.89-35.4Q40.4-34.11 40.4-32.59L40.4-32.59 40.4-20.24Q49.7-19.87 59.1-20.24L59.1-20.24 59.1-28.1Q59.1-31.54 58.27-32.74 57.44-33.94 54.81-33.74L54.81-33.74 54.71-34.2Q58.74-35.4 62.35-35.4L62.35-35.4Q62.84-34.06 62.84-32.59ZM81.34-32.1L81.34-32.1 81.34-4.39Q81.34-2.42 82.15-1.51 82.95-0.61 85.2-0.2L85.2-0.2 84.98 0.39Q82.2 0 80.59 0L80.59 0Q79.15 0 77.24 0.39L77.24 0.39 77.09 0.15Q77.58-0.56 77.58-2.44L77.58-2.44 77.58-28.1Q77.58-31.57 76.79-32.65 76-33.74 73.29-33.74L73.29-33.74 73.19-34.45Q79.98-35.45 84.1-35.45L84.1-35.45Q86.93-35.45 89.12-35.03 91.3-34.62 93.06-33.65 94.82-32.69 95.76-30.98 96.7-29.27 96.7-26.86L96.7-26.86Q96.7-24.19 94.98-22.01 93.26-19.82 90.71-18.69 88.15-17.55 85.49-17.55L85.49-17.55Q84.44-17.55 83.93-17.65L83.93-17.65 83.93-18.51Q85.79-18.51 87.36-18.99 88.94-19.48 90.17-20.46 91.4-21.44 92.1-23.03 92.79-24.63 92.79-26.71L92.79-26.71Q92.79-30.05 91.11-32.01 89.42-33.96 85.83-33.96L85.83-33.96Q83.2-33.96 81.2-33.64L81.2-33.64Q81.34-32.91 81.34-32.1ZM110.44-15.6L110.44-15.6 98.94-15.6 98.94-16.46Q101.16-17.46 102.95-17.46L102.95-17.46 114.45-17.46 114.45-16.6Q112.32-15.6 110.44-15.6ZM131.53-0.15L131.53-0.15 125.8 0.05Q124.48 0.1 123.46 0.22 122.45 0.34 121.74 0.49L121.74 0.49 121.6 0.24Q122.08-0.46 122.08-2.34L122.08-2.34 122.08-28.1Q122.08-29.76 121.94-30.86 121.79-31.96 121.39-32.6 120.99-33.25 120.29-33.51 119.59-33.76 118.79-33.76 117.98-33.76 117.79-33.74L117.79-33.74 117.69-34.45Q120.64-34.84 123.51-35.13 126.38-35.42 127.41-35.46 128.43-35.5 129.38-35.5L129.38-35.5Q132.05-35.5 134.11-35.17 136.17-34.84 137.58-34.08 138.98-33.33 139.71-32.12 140.44-30.91 140.44-29.15L140.44-29.15Q140.44-27.64 139.86-26.27 139.27-24.9 138.23-23.73 137.2-22.56 135.81-21.61 134.41-20.65 132.8-20L132.8-20 132.8-19.8Q134.71-19.56 136.53-18.95 138.34-18.33 139.76-17.25 141.18-16.16 142.03-14.56 142.89-12.96 142.89-10.74L142.89-10.74Q142.89-8.13 141.9-6.14 140.91-4.15 139.3-2.82 137.69-1.49 135.65-0.82 133.61-0.15 131.53-0.15ZM125.84-32.06L125.84-32.06 125.84-1.54 130.04-1.34Q134.1-1.15 136.57-3.31 139.05-5.47 139.05-9.91L139.05-9.91Q139.05-12.23 138.15-14.03 137.25-15.82 135.65-16.89 134.05-17.97 132-18.51 129.95-19.04 127.5-18.99L127.5-18.99 127.5-20.04Q129.82-20.09 131.87-21.04 133.93-22 135.3-23.94 136.68-25.88 136.68-28.44L136.68-28.44Q136.68-30.66 135.77-31.86 134.85-33.06 133.34-33.54 131.83-34.03 129.85-33.98 127.87-33.94 125.75-33.64L125.75-33.64Q125.72-33.64 125.7-33.64L125.7-33.64Q125.84-32.84 125.84-32.06ZM155.53-32.59L155.53-1.49 163.63-1.76Q165.42-1.81 166.66-2.16 167.91-2.51 168.81-3.28 169.71-4.05 170.29-4.9 170.86-5.74 171.57-7.15L171.57-7.15 172.28-6.86 169.88-0.34 169.47 0 152.23 0Q151.77-1.03 151.77-2.39L151.77-2.39 151.77-28.1Q151.77-31.54 150.95-32.74 150.13-33.94 147.47-33.74L147.47-33.74 147.38-34.2Q151.4-35.4 155.04-35.4L155.04-35.4Q155.53-34.06 155.53-32.59L155.53-32.59ZM195.13-36.5L195.13-36.5Q203.28-36.5 207.68-31.35 212.07-26.2 212.07-17.09L212.07-17.09Q212.07-13.23 210.7-9.84 209.34-6.45 207.02-4.08 204.7-1.71 201.56-0.35 198.42 1 194.98 1L194.98 1Q191.37 1 188.27-0.28 185.17-1.56 182.88-3.93 180.6-6.3 179.31-9.9 178.01-13.5 178.01-17.9L178.01-17.9Q178.01-21.78 179.39-25.24 180.77-28.71 183.08-31.16 185.39-33.62 188.53-35.06 191.68-36.5 195.13-36.5ZM182.11-18.14L182.11-18.14Q182.11-14.55 182.88-11.56 183.65-8.57 184.95-6.52 186.24-4.47 187.99-3.05 189.73-1.64 191.66-0.99 193.59-0.34 195.66-0.34L195.66-0.34Q198.67-0.34 201.05-1.66 203.43-2.98 204.92-5.26 206.41-7.54 207.19-10.5 207.97-13.45 207.97-16.85L207.97-16.85Q207.97-21.26 206.86-24.8 205.75-28.34 203.87-30.53 201.99-32.71 199.61-33.86 197.23-35.01 194.57-35.01L194.57-35.01Q191.56-35.01 189.16-33.63 186.75-32.25 185.24-29.91 183.73-27.56 182.92-24.55 182.11-21.53 182.11-18.14ZM246.42-3.1L246.42-3.1 246.42-7.1Q246.42-10.55 245.59-11.73 244.76-12.92 242.1-12.74L242.1-12.74 242-13.21Q246.03-14.4 249.67-14.4L249.67-14.4Q250.15-13.06 250.15-11.6L250.15-11.6 250.15-4.59Q250.15-2.29 250.62-1.66L250.62-1.66 250.47-1.39Q248.54-1.39 246.3-0.79 244.05-0.2 241.49 0.4 238.92 1 236.26 1L236.26 1Q232.58 1 229.4-0.35 226.23-1.71 223.94-4.13 221.66-6.54 220.36-10.08 219.05-13.62 219.05-17.8L219.05-17.8Q219.05-21.63 220.09-24.77 221.13-27.91 222.92-30.05 224.71-32.2 227.23-33.68 229.74-35.16 232.64-35.83 235.53-36.5 238.8-36.5L238.8-36.5Q244.39-36.5 249.3-34.2L249.3-34.2Q248.44-31.15 246.86-27.76L246.86-27.76 246.2-28Q246.59-30.91 246.37-32.79L246.37-32.79Q245.3-33.4 244.25-33.8 243.2-34.2 242.02-34.44 240.85-34.67 239.5-34.75 238.14-34.84 236.46-34.84L236.46-34.84Q234.21-34.84 232.27-34.27 230.33-33.69 228.64-32.37 226.96-31.05 225.76-29.06 224.57-27.08 223.88-24.11 223.2-21.14 223.2-17.41L223.2-17.41Q223.2-13.82 224.42-10.64 225.64-7.47 227.66-5.3 229.67-3.13 232.31-1.87 234.94-0.61 237.75-0.61L237.75-0.61Q240.53-0.61 242.43-1.11 244.32-1.61 246.42-3.1Z" opacity="1" transform="matrix(1,0,0,1,0,0)" fill="#ffffff" class="undefined-text-0" data-fill-palette-color="primary" id="text-0"></path></svg></g></svg></g></svg></g></svg></g></svg></g></svg></g></svg></g></svg><rect width="375.07953" height="238.92642" fill="none" stroke="none" visibility="hidden"></rect></g></svg></g></svg>